<?xml version="1.0" encoding="UTF-8"?>
<svg width="193px" height="65px" viewBox="0 0 193 65" version="1.1" xmlns="http://www.w3.org/2000/svg" xmlns:xlink="http://www.w3.org/1999/xlink">
    <!-- Generator: Sketch 46.2 (44496) - http://www.bohemiancoding.com/sketch -->
    <title>logo</title>
    <desc>Created with Sketch.</desc>
    <defs></defs>
    <g id="Page-1" stroke="none" stroke-width="1" fill="none" fill-rule="evenodd">
        <g id="logo">
            <path d="M31.127,0.209 C26.168,0.209 21.222,1.892 17.199,4.949 C14.273,7.172 12.487,9.771 11.982,10.56 C11.542,10.826 10.569,11.451 9.681,12.28 C9.418,12.525 9.03,13.002 8.675,13.882 C8.359,14.665 8.11,15.681 7.938,16.899 C7.739,18.298 7.719,19.494 7.739,20.264 C7.628,20.298 7.509,20.338 7.388,20.384 C6.829,20.594 6.212,20.938 5.738,21.306 C5.213,21.713 4.596,22.261 4,23.237 C3.701,23.727 3.45,24.271 3.315,24.583 C3.236,24.647 3.139,24.724 3.032,24.809 C2.444,25.278 2.04,25.655 1.797,25.964 C1.316,26.575 1.013,27.203 0.813,27.998 L0.803,28.033 C0.717,28.367 0.62,28.746 0.393,32.033 C0.252,34.082 0.232,36.804 0.275,37.441 C0.327,38.214 0.553,39.001 0.912,39.656 C1.085,39.971 1.463,40.489 1.918,40.933 C2.13,41.14 2.33,41.338 2.468,41.474 C2.554,41.75 2.706,42.201 2.903,42.654 C3.186,43.305 3.547,43.885 4.005,44.429 C5.131,45.765 6.554,46.33 7.45,46.565 C7.628,47.796 8.201,50.107 10.04,51.65 C11.75,53.084 16.885,57.349 20.283,60.172 C21.396,61.096 22.29,61.838 22.756,62.226 C23.749,63.052 24.959,63.755 26.075,64.154 C27.194,64.554 28.831,64.693 30.102,64.736 L30.102,64.752 L31.085,64.753 C31.099,64.753 31.113,64.753 31.127,64.753 L32.152,64.753 L32.152,64.736 C33.423,64.693 35.059,64.554 36.179,64.154 C37.295,63.755 38.505,63.052 39.499,62.226 C39.964,61.839 40.855,61.099 41.965,60.177 C45.365,57.353 50.503,53.085 52.214,51.65 C54.053,50.107 54.626,47.796 54.804,46.565 C55.7,46.33 57.122,45.765 58.249,44.429 C58.708,43.885 59.068,43.305 59.351,42.654 C59.548,42.201 59.699,41.75 59.786,41.474 C59.923,41.338 60.124,41.14 60.336,40.933 C60.791,40.489 61.169,39.971 61.342,39.656 C61.7,39.001 61.927,38.214 61.979,37.441 C62.023,36.804 62.002,34.082 61.861,32.033 C61.634,28.746 61.537,28.367 61.45,28.033 L61.441,27.998 C61.241,27.203 60.938,26.575 60.457,25.964 C60.214,25.655 59.81,25.278 59.222,24.809 C59.115,24.724 59.018,24.647 58.939,24.583 C58.804,24.271 58.553,23.727 58.254,23.237 C57.658,22.261 57.041,21.713 56.516,21.306 C56.042,20.938 55.425,20.594 54.866,20.384 C54.744,20.338 54.627,20.298 54.515,20.264 C54.534,19.494 54.515,18.298 54.316,16.899 C54.143,15.681 53.896,14.665 53.579,13.882 C53.224,13.002 52.836,12.525 52.573,12.28 C51.685,11.451 50.712,10.826 50.272,10.56 C49.767,9.771 47.982,7.172 45.054,4.949 C41.032,1.892 36.086,0.209 31.127,0.209" id="Fill-1" fill="#FFFFFE"></path>
            <path d="M91.323,29.475 C91.323,28.172 90.643,27.605 88.263,27.605 C85.881,27.605 83.784,28.852 83.501,29.078 L80.611,48.302 L69.788,48.302 L72.904,27.889 L70.468,27.549 L71.034,19.955 L83.558,19.955 L84.011,21.485 L84.295,21.485 C84.295,21.485 87.071,18.766 93.362,18.766 C99.426,18.766 102.486,21.089 102.486,26.245 C102.486,27.039 102.429,27.889 102.259,28.795 L100.616,39.519 C100.73,40.256 101.069,40.483 101.24,40.483 C101.749,40.483 103.506,40.426 103.506,40.426 L103.053,47.566 C103.053,47.566 98.35,48.869 93.816,48.869 C90.417,48.869 88.942,47.396 88.942,45.299 C88.942,44.109 91.323,31.061 91.323,29.475" id="Fill-2" fill="#0091C6"></path>
            <path d="M108.376,19.955 L122.316,19.955 L119.313,39.292 C119.371,40.256 119.767,40.483 119.938,40.483 C120.447,40.483 122.203,40.426 122.203,40.426 L121.751,47.566 C121.751,47.566 117.046,48.869 112.514,48.869 C109.113,48.869 107.697,47.452 107.697,45.299 C107.697,45.015 107.697,44.732 107.753,44.45 L110.247,27.889 L107.811,27.549 L108.376,19.955" id="Fill-3" fill="#0091C6"></path>
            <path d="M148.15,29.475 C148.15,28.172 147.471,27.605 145.09,27.605 C142.71,27.605 140.614,28.852 140.33,29.078 L137.44,48.302 L126.617,48.302 L129.734,27.889 L127.297,27.549 L127.863,19.955 L140.387,19.955 L140.84,21.485 L141.124,21.485 C141.124,21.485 143.9,18.766 150.191,18.766 C156.254,18.766 159.314,21.089 159.314,26.245 C159.314,27.039 159.257,27.889 159.087,28.795 L157.444,39.519 C157.557,40.256 157.897,40.483 158.067,40.483 C158.577,40.483 160.334,40.426 160.334,40.426 L159.88,47.566 C159.88,47.566 155.177,48.869 150.643,48.869 C147.244,48.869 145.771,47.396 145.771,45.299 C145.771,44.109 148.15,31.061 148.15,29.475" id="Fill-4" fill="#0091C6"></path>
            <path d="M174.288,31.345 C181.598,31.289 183.071,30.268 183.071,28.399 C183.071,27.266 182.166,26.189 179.728,26.189 C177.462,26.189 175.308,27.209 174.288,31.345 Z M190.495,42.749 C190.495,42.749 187.322,49.549 177.462,49.549 C169.245,49.549 163.182,45.299 163.182,36.799 C163.182,25.905 171.455,18.766 180.862,18.766 C187.435,18.766 192.59,22.335 192.59,28.002 C192.59,34.858 187.151,37.592 173.779,37.763 C174.175,40.765 176.612,41.786 179.105,41.786 C183.129,41.786 185.225,38.952 185.225,38.952 L190.495,42.749 L190.495,42.749 Z" id="Fill-5" fill="#0091C6"></path>
            <path d="M29.265,35.484 C29.63,34.619 29.978,33.156 28.929,32.615 C27.597,31.928 25.566,31.733 24.158,31.785 C21.545,31.882 19.545,32.495 19.211,32.686 C18.831,32.904 18.407,33.556 20.348,33.522 C23.182,33.472 22.895,34.297 23.171,35.213 C23.604,36.649 24.731,36.919 26.927,36.919 C28.066,36.919 28.901,36.349 29.265,35.484" id="Fill-6" fill="#213441"></path>
            <path d="M32.989,35.484 C32.625,34.619 32.276,33.156 33.325,32.615 C34.657,31.928 36.689,31.733 38.096,31.785 C40.709,31.882 42.709,32.495 43.043,32.686 C43.423,32.904 43.846,33.556 41.905,33.522 C39.072,33.472 39.359,34.297 39.083,35.213 C38.65,36.649 37.523,36.919 35.327,36.919 C34.188,36.919 33.353,36.349 32.989,35.484" id="Fill-7" fill="#213441"></path>
            <path d="M27.394,43.704 C26.753,44.138 26.573,44.252 27.001,44.801 C27.366,45.269 27.993,45.132 28.469,45.276 C28.945,45.421 30.104,46.518 30.476,46.807 C30.729,47.004 30.934,47.057 31.112,47.057 C31.117,47.057 31.122,47.057 31.127,47.057 C31.131,47.057 31.137,47.057 31.142,47.057 C31.32,47.057 31.526,47.004 31.777,46.807 C32.15,46.518 33.309,45.421 33.784,45.276 C34.26,45.132 34.888,45.269 35.254,44.801 C35.681,44.252 35.502,44.138 34.86,43.704 C34.219,43.269 33.626,43.419 33.288,43.652 C32.616,44.118 32.178,44.34 31.964,44.463 C31.751,44.584 31.431,44.694 31.127,44.695 C30.823,44.694 30.503,44.584 30.29,44.463 C30.076,44.34 29.638,44.118 28.966,43.652 C28.629,43.419 28.035,43.269 27.394,43.704" id="Fill-8" fill="#213441"></path>
            <path d="M44.17,24.306 C34.487,24.182 33.218,15.203 33.605,13.465 C34.136,11.073 46.084,11.916 48.844,15.576 C49.957,17.051 50.666,24.389 44.17,24.306 Z M46.331,39.451 C46.079,39.78 44.866,40.993 44.713,41.462 C44.559,41.931 44.592,42.325 44.592,42.325 L44.572,47.972 C44.572,47.972 44.648,49.751 44.048,50.261 C42.905,51.234 35.123,57.636 35.123,57.636 C35.123,57.636 34.604,58.099 33.958,58.332 C33.338,58.555 31.153,58.542 31.141,58.542 C31.141,58.542 31.135,58.542 31.127,58.542 C31.119,58.542 31.113,58.542 31.113,58.542 C31.101,58.542 28.916,58.555 28.296,58.332 C27.65,58.099 27.131,57.636 27.131,57.636 C27.131,57.636 19.349,51.234 18.205,50.261 C17.606,49.751 17.681,47.972 17.681,47.972 L17.662,42.325 C17.662,42.325 17.695,41.931 17.542,41.462 C17.388,40.993 16.174,39.78 15.923,39.451 C15.563,38.981 15.426,38.273 15.426,37.672 C15.426,37.27 15.664,30.532 15.664,30.532 C15.664,30.532 15.914,30.065 16.609,29.646 C19.383,27.972 31.11,27.962 31.11,27.962 L31.144,27.962 C31.144,27.962 42.87,27.972 45.645,29.646 C46.34,30.065 46.59,30.532 46.59,30.532 C46.59,30.532 46.827,37.27 46.827,37.672 C46.827,38.273 46.691,38.981 46.331,39.451 Z M13.409,15.576 C16.169,11.916 28.117,11.073 28.649,13.465 C29.035,15.203 27.767,24.182 18.085,24.306 C11.589,24.389 12.297,17.051 13.409,15.576 Z M58.816,33.083 L58.816,33.083 C58.816,33.075 58.816,33.067 58.815,33.058 C58.814,33.051 58.814,33.044 58.814,33.036 C58.709,30.972 58.511,29.153 58.511,29.153 C58.511,29.153 58.431,28.378 58.053,27.919 C57.675,27.46 56.774,26.918 56.424,26.472 C56.403,26.445 56.382,26.414 56.362,26.381 C56.726,28.261 56.99,30.649 57.113,33.176 C57.165,34.259 57.187,35.316 57.183,36.324 C57.167,36.597 57.135,36.86 57.072,36.995 C56.908,37.349 56.636,37.482 56.395,37.705 C56.199,37.886 56.007,38.092 55.824,38.331 C55.895,36.833 55.895,35.097 55.805,33.239 C55.553,28.029 54.504,24.11 53.789,23.436 C53.588,23.247 53.287,23.149 53.093,23.102 C52.572,23.002 51.934,22.956 51.065,22.923 C51.905,19.663 51.047,15.08 50.398,14.485 C49.716,13.86 48.923,13.325 48.062,12.872 C44.592,7.147 38.307,3.319 31.127,3.307 C23.947,3.319 17.662,7.147 14.192,12.872 C13.331,13.325 12.538,13.86 11.856,14.485 C11.207,15.08 10.349,19.663 11.189,22.923 C10.32,22.956 9.682,23.002 9.161,23.102 C8.967,23.149 8.667,23.247 8.465,23.436 C7.75,24.11 6.701,28.029 6.449,33.239 C6.358,35.097 6.359,36.833 6.43,38.331 C6.247,38.092 6.055,37.886 5.859,37.705 C5.618,37.482 5.346,37.349 5.182,36.995 C5.119,36.86 5.087,36.597 5.071,36.324 C5.066,35.316 5.089,34.259 5.141,33.176 C5.263,30.649 5.528,28.261 5.892,26.381 C5.871,26.414 5.851,26.445 5.83,26.472 C5.48,26.918 4.579,27.46 4.201,27.919 C3.823,28.378 3.743,29.153 3.743,29.153 C3.743,29.153 3.545,30.972 3.44,33.036 C3.44,33.044 3.439,33.051 3.439,33.058 C3.439,33.067 3.438,33.075 3.438,33.083 C3.337,35.148 3.353,36.978 3.353,36.978 C3.353,36.978 3.355,37.756 3.685,38.251 C4.015,38.745 4.858,39.374 5.161,39.854 C5.465,40.333 5.587,41.718 6.591,42.656 C7.464,43.47 8.236,43.728 10.424,43.783 L10.423,44.549 C10.436,45.53 10.477,47.905 12.016,49.261 C12.374,49.578 21.858,57.454 24.762,59.863 C25.057,60.113 25.912,60.77 27.028,61.202 C27.905,61.542 29.585,61.64 31.127,61.654 C32.669,61.64 34.348,61.542 35.226,61.202 C36.342,60.77 37.197,60.113 37.492,59.863 C40.396,57.454 49.88,49.578 50.238,49.261 C51.777,47.905 51.818,45.53 51.83,44.549 L51.83,43.783 C54.017,43.728 54.79,43.47 55.662,42.656 C56.667,41.718 56.789,40.333 57.092,39.854 C57.396,39.374 58.239,38.745 58.569,38.251 C58.9,37.756 58.902,36.978 58.902,36.978 C58.902,36.978 58.918,35.148 58.816,33.083 L58.816,33.083 Z" id="Fill-9" fill="#213441"></path>
            <path d="M36.584,47.931 C36.212,47.924 35.362,48.567 34.708,48.786 C34.394,48.891 34.081,48.971 33.753,48.979 C33.604,48.982 31.273,48.979 31.127,48.979 C30.981,48.979 28.65,48.982 28.501,48.979 C28.173,48.971 27.86,48.891 27.546,48.786 C26.892,48.567 26.043,47.924 25.67,47.931 C25.256,47.939 24.197,48.84 24.401,49.172 C24.622,49.531 25.243,48.938 25.974,49.31 C26.254,49.452 27.128,50.11 27.307,50.246 C27.485,50.381 27.889,50.624 28.291,50.717 C28.7,50.811 30.914,50.816 31.127,50.816 C31.34,50.816 33.554,50.811 33.964,50.717 C34.365,50.624 34.769,50.381 34.947,50.246 C35.126,50.11 36,49.452 36.28,49.31 C37.011,48.938 37.632,49.531 37.853,49.172 C38.057,48.84 36.997,47.939 36.584,47.931" id="Fill-10" fill="#213441"></path>
        </g>
    </g>
</svg>