<?xml version="1.0" encoding="UTF-8"?>
<svg width="192px" height="65px" viewBox="0 0 192 65" version="1.1" xmlns="http://www.w3.org/2000/svg" xmlns:xlink="http://www.w3.org/1999/xlink">
    <!-- Generator: Sketch 46.2 (44496) - http://www.bohemiancoding.com/sketch -->
    <title>logo-white</title>
    <desc>Created with Sketch.</desc>
    <defs></defs>
    <g id="Page-1" stroke="none" stroke-width="1" fill="none" fill-rule="evenodd">
        <g id="logo-white">
            <path d="M30.9997786,0 C26.0202734,0 21.0538219,1.69489031 17.014187,4.77348785 C14.0760882,7.01219323 12.2827032,9.62955503 11.775615,10.4241293 C11.3337957,10.6920086 10.3567724,11.3204171 9.46510052,12.156281 C9.20101303,12.4030119 8.81140867,12.8833819 8.45494076,13.769599 C8.13763412,14.5581309 7.88760452,15.5813089 7.71489331,16.808921 C7.51507045,18.2167978 7.49498776,19.4212475 7.51507045,20.1956805 C7.40361148,20.2309277 7.28411942,20.2712103 7.16261909,20.3165283 C6.60130765,20.5280119 5.98175639,20.8754493 5.50579643,21.2460492 C4.97862558,21.6559246 4.35907432,22.2077962 3.76060989,23.1906916 C3.46037354,23.6841534 3.20833567,24.2330038 3.07277745,24.5472081 C2.99345079,24.6106532 2.8960497,24.6881972 2.78860726,24.7737977 C2.19817591,25.2461112 1.7925054,25.6267817 1.5485006,25.9379648 C1.06551169,26.5522744 0.761258806,27.1837041 0.560431817,27.9853278 L0.550390467,28.0205751 C0.464034862,28.3569348 0.366633772,28.7386124 0.138695139,32.0488349 C-0.00288788836,34.112311 -0.0229705873,36.8535418 0.0202072154,37.4950421 C0.0724222326,38.2745104 0.29935673,39.0660635 0.659841176,39.725691 C0.833556522,40.0429165 1.21311953,40.5645761 1.67000093,41.0117129 C1.88287754,41.2201754 2.08370453,41.4195742 2.22227515,41.5565351 C2.30863076,41.834485 2.46125927,42.2876642 2.65907385,42.7448717 C2.94324404,43.3994639 3.30573676,43.9845687 3.76563057,44.532412 C4.89628651,45.8778508 6.32517054,46.4468425 7.22487546,46.6845098 C7.40361148,47.9231997 7.9789808,50.2515338 9.82558497,51.804428 C11.5426557,53.2495662 16.6988887,57.5446982 20.1109392,60.3866355 C21.2285414,61.3171635 22.1262381,62.0644057 22.5941649,62.4551469 C23.5912709,63.2869825 24.8062742,63.9949492 25.9268888,64.395761 C27.0505158,64.7995941 28.6942847,64.9395761 29.9705403,64.9818728 L29.9705403,64.9989929 L30.9576049,65 C30.9716628,65 30.9857207,65 30.9997786,65 L32.0290169,65 L32.0290169,64.9818728 C33.3052724,64.9395761 34.9480372,64.7995941 36.0726683,64.395761 C37.1932829,63.9949492 38.4082862,63.2869825 39.4063963,62.4551469 C39.8733191,62.0654127 40.7680033,61.3201847 41.8825931,60.3916708 C45.2966519,57.5477194 50.4558973,53.2495662 52.1739722,51.804428 C54.0205764,50.2515338 54.5959457,47.9231997 54.7746817,46.6845098 C55.6743866,46.4468425 57.1022665,45.8778508 58.2339266,44.532412 C58.6948245,43.9845687 59.0563131,43.3994639 59.3404833,42.7448717 C59.5382979,42.2876642 59.6899223,41.834485 59.777282,41.5565351 C59.9148485,41.4195742 60.1166796,41.2201754 60.3295562,41.0117129 C60.7864376,40.5645761 61.1660006,40.0429165 61.339716,39.725691 C61.6991963,39.0660635 61.9271349,38.2745104 61.9793499,37.4950421 C62.0235319,36.8535418 62.002445,34.112311 61.860862,32.0488349 C61.6329234,28.7386124 61.5355223,28.3569348 61.4481626,28.0205751 L61.4391253,27.9863349 C61.2382984,27.1837041 60.9340455,26.5522744 60.4510566,25.9379648 C60.2070518,25.6267817 59.8013812,25.2461112 59.2109499,24.7737977 C59.1035075,24.6881972 59.0061064,24.6106532 58.9267797,24.5472081 C58.7912215,24.2319968 58.5391836,23.6841534 58.2389473,23.1906916 C57.6404828,22.2077962 57.0209316,21.6559246 56.4937607,21.2460492 C56.0178008,20.8754493 55.3982495,20.5280119 54.8369381,20.3165283 C54.7144336,20.2712103 54.5969498,20.2309277 54.4844867,20.1956805 C54.5035653,19.4212475 54.4844867,18.2167978 54.2846638,16.808921 C54.1109485,15.5813089 53.8629272,14.5581309 53.5446164,13.769599 C53.1881485,12.8833819 52.7985441,12.4030119 52.5344566,12.156281 C51.6427848,11.3204171 50.6657615,10.6920086 50.2239421,10.4241293 C49.716854,9.62955503 47.9244731,7.01219323 44.984366,4.77348785 C40.9457352,1.69489031 35.9792838,0 30.9997786,0" id="Fill-1" fill="#FFFFFE"></path>
            <path d="M91.7151077,29.6730003 C91.7151077,28.3745017 91.0294205,27.8094605 88.6295154,27.8094605 C86.2275936,27.8094605 84.1130553,29.0521525 83.8276885,29.2773718 L80.913518,48.4349588 L70,48.4349588 L73.1420606,28.0924794 L70.6856872,27.753654 L71.2564209,20.1858889 L83.8851652,20.1858889 L84.3419539,21.7106032 L84.6283291,21.7106032 C84.6283291,21.7106032 87.4275461,19 93.7711608,19 C99.885877,19 102.971469,21.3159713 102.971469,26.4541589 C102.971469,27.2454159 102.913993,28.0924794 102.742571,28.9953495 L101.08583,39.6823014 C101.200783,40.4167552 101.542618,40.642971 101.715048,40.642971 C102.228305,40.642971 104,40.586168 104,40.586168 L103.543211,47.7015015 C103.543211,47.7015015 98.8008779,49 94.2289578,49 C90.8015303,49 89.3141942,47.5320888 89.3141942,45.4423332 C89.3141942,44.2564443 91.7151077,31.2545177 91.7151077,29.6730003" id="Fill-2" fill="#FFFFFE"></path>
            <path d="M108.696696,20 L123,20 L119.918736,39.3945148 C119.978247,40.361382 120.384568,40.5890572 120.560025,40.5890572 C121.08229,40.5890572 122.884055,40.5318877 122.884055,40.5318877 L122.420275,47.6931244 C122.420275,47.6931244 117.592653,49 112.942541,49 C109.452904,49 108,47.5787854 108,45.4193816 C108,45.1355399 108,44.8516981 108.057459,44.5668534 L110.616458,27.9575984 L108.116971,27.6165871 L108.696696,20" id="Fill-3" fill="#FFFFFE"></path>
            <path d="M148.713735,29.6730003 C148.713735,28.3745017 148.029036,27.8094605 145.628051,27.8094605 C143.228075,27.8094605 141.114482,29.0521525 140.828099,29.2773718 L137.913842,48.4349588 L127,48.4349588 L130.143162,28.0924794 L127.685708,27.753654 L128.256458,20.1858889 L140.885577,20.1858889 L141.342379,21.7106032 L141.628763,21.7106032 C141.628763,21.7106032 144.428063,19 150.771866,19 C156.885755,19 159.971439,21.3159713 159.971439,26.4541589 C159.971439,27.2454159 159.91396,28.0924794 159.742533,28.9953495 L158.085743,39.6823014 C158.199692,40.4167552 158.542545,40.642971 158.713972,40.642971 C159.228253,40.642971 161,40.586168 161,40.586168 L160.542189,47.7015015 C160.542189,47.7015015 155.799715,49 151.22766,49 C147.80013,49 146.314767,47.5320888 146.314767,45.4423332 C146.314767,44.2564443 148.713735,31.2545177 148.713735,29.6730003" id="Fill-4" fill="#FFFFFE"></path>
            <path d="M173.951918,31.6678577 C181.160501,31.6114666 182.613064,30.584343 182.613064,28.7012831 C182.613064,27.5593633 181.72062,26.4758486 179.316445,26.4758486 C177.081882,26.4758486 174.957767,27.5029722 173.951918,31.6678577 Z M189.934066,43.1515024 C189.934066,43.1515024 186.805087,50 177.081882,50 C168.978883,50 163,45.7193114 163,37.160955 C163,26.1898652 171.158222,19 180.434712,19 C186.916519,19 192,22.5949326 192,28.3015105 C192,35.2063992 186.636459,37.9594933 173.44998,38.1306805 C173.840486,41.1536463 176.243675,42.1817768 178.702088,42.1817768 C182.67026,42.1817768 184.73718,39.3279844 184.73718,39.3279844 L189.934066,43.1515024 L189.934066,43.1515024 Z" id="Fill-5" fill="#FFFFFE"></path>
            <path d="M29.6289678,35.6039128 C30.0028068,34.7629549 30.3592342,33.3406181 29.284831,32.8146549 C27.9205745,32.1467496 25.8403906,31.9571695 24.3982937,32.0077242 C21.7220158,32.1020282 19.6735826,32.697018 19.3314943,32.8836815 C18.942292,33.0956223 18.5080241,33.7295004 20.4960285,33.6964454 C23.3986583,33.6478351 23.1047082,34.4499047 23.3873919,35.340445 C23.8308777,36.7365323 24.9851698,37 27.2343494,37 C28.4009321,37 29.2561529,36.4448706 29.6289678,35.6039128" id="Fill-6" fill="#213441"></path>
            <path d="M33.3706757,35.6039128 C32.9978349,34.7629549 32.6403584,33.3406181 33.7148364,32.8146549 C35.0791879,32.1467496 37.160541,31.9571695 38.6017141,32.0077242 C41.2781785,32.1020282 43.3267544,32.697018 43.6688665,32.8836815 C44.0580959,33.0956223 44.4913697,33.7295004 42.5032269,33.6964454 C39.6014191,33.6478351 39.8953898,34.4499047 39.6126863,35.340445 C39.1691696,36.7365323 38.0147971,37 35.7654608,37 C34.5987969,37 33.7435165,36.4448706 33.3706757,35.6039128" id="Fill-7" fill="#213441"></path>
            <path d="M27.6460565,43.3056661 C26.9843342,43.7838471 26.7985151,43.9094523 27.2403515,44.5143402 C27.6171513,45.0310842 28.264421,44.8790359 28.7558092,45.037695 C29.2471973,45.1974559 30.4436656,46.40613 30.8276916,46.7245501 C31.0888706,46.9416046 31.3004979,47 31.4842523,47 C31.4894139,47 31.4945756,47 31.4997372,47 C31.5038665,47 31.5100605,47 31.5152221,47 C31.6989765,47 31.9116361,46.9416046 32.1707505,46.7245501 C32.5558088,46.40613 33.7522771,45.1974559 34.2426329,45.037695 C34.7340211,44.8790359 35.3823231,45.0310842 35.7601552,44.5143402 C36.2009593,43.9094523 36.0161726,43.7838471 35.3534179,43.3056661 C34.6916956,42.8274851 34.0795251,42.9916532 33.7305982,43.2483725 C33.0368737,43.7618111 32.584714,44.0064106 32.3637958,44.141932 C32.1439099,44.2752497 31.8135649,44.3964477 31.4997372,44.3975495 C31.1859095,44.3964477 30.8555645,44.2752497 30.6356786,44.141932 C30.4147604,44.0064106 29.9626007,43.7618111 29.2688762,43.2483725 C28.9209817,42.9916532 28.3077788,42.8274851 27.6460565,43.3056661" id="Fill-8" fill="#213441"></path>
            <path d="M44.1479633,23.8737575 C34.3866705,23.749503 33.1074099,14.8250497 33.497539,13.0974155 C34.0328324,10.7186879 46.0774391,11.5576541 48.8597553,15.195825 C49.9817546,16.6620278 50.6964872,23.9562624 44.1479633,23.8737575 Z M46.3264362,38.9294235 C46.0723986,39.2554672 44.8495908,40.4612326 44.6953537,40.9274354 C44.5401085,41.3936382 44.5733754,41.7852883 44.5733754,41.7852883 L44.5532137,47.3976143 C44.5532137,47.3976143 44.6298282,49.166998 44.0249768,49.6739563 C42.872735,50.6411531 35.0278129,57.0059642 35.0278129,57.0059642 C35.0278129,57.0059642 34.5046165,57.4662028 33.8533932,57.6968191 C33.2283801,57.9194831 31.0257131,57.9055666 31.0136161,57.9055666 C31.0136161,57.9055666 31.0075676,57.9055666 30.9995029,57.9055666 C30.9914382,57.9055666 30.9853897,57.9055666 30.9853897,57.9055666 C30.9732927,57.9055666 28.7706257,57.9194831 28.1456126,57.6968191 C27.4943893,57.4662028 26.9711929,57.0059642 26.9711929,57.0059642 C26.9711929,57.0059642 19.1262708,50.6411531 17.9730209,49.6739563 C17.3691776,49.166998 17.4447841,47.3976143 17.4447841,47.3976143 L17.4256304,41.7852883 C17.4256304,41.7852883 17.4588973,41.3936382 17.3046602,40.9274354 C17.149415,40.4612326 15.9255991,39.2554672 15.6725696,38.9294235 C15.3096588,38.4622266 15.171551,37.7574553 15.171551,37.1610338 C15.171551,36.7604374 15.4114754,30.0626243 15.4114754,30.0626243 C15.4114754,30.0626243 15.6634968,29.5994036 16.3641163,29.1819085 C19.1605457,27.5178926 30.9823654,27.5089463 30.9823654,27.5089463 L31.0166404,27.5089463 C31.0166404,27.5089463 42.837452,27.5178926 45.6348895,29.1819085 C46.335509,29.5994036 46.5875304,30.0626243 46.5875304,30.0626243 C46.5875304,30.0626243 46.8264467,36.7604374 46.8264467,37.1610338 C46.8264467,37.7574553 46.689347,38.4622266 46.3264362,38.9294235 Z M13.1382424,15.195825 C15.9205586,11.5576541 27.9651653,10.7186879 28.5014668,13.0974155 C28.8905878,14.8250497 27.6123353,23.749503 17.8520506,23.8737575 C11.3035266,23.9562624 12.0172512,16.6620278 13.1382424,15.195825 Z M58.9123848,32.5994036 L58.9123848,32.5994036 C58.9123848,32.5904573 58.9123848,32.582505 58.9113767,32.5735586 C58.9103686,32.5666004 58.9103686,32.5596421 58.9103686,32.5516899 C58.8045197,30.5 58.6049187,28.6918489 58.6049187,28.6918489 C58.6049187,28.6918489 58.5242719,27.9224652 58.1432155,27.4652087 C57.7621592,27.0089463 56.853874,26.4701789 56.5010441,26.0258449 C56.4798743,26 56.4587045,25.9691849 56.4385428,25.9363817 C56.8054859,27.805169 57.0716205,30.1789264 57.195615,32.6908549 C57.2480355,33.7673956 57.2702134,34.8190855 57.266181,35.8200795 C57.2500517,36.0904573 57.2177929,36.3528827 57.1542835,36.4880716 C56.9889575,36.8389662 56.7147582,36.972167 56.4718096,37.1928429 C56.2742248,37.3727634 56.0806724,37.5775348 55.8961927,37.8151093 C55.9677668,36.3260437 55.9677668,34.6013917 55.8770391,32.7534791 C55.6230015,27.5755467 54.5655197,23.6799205 53.8447385,23.0099404 C53.6421133,22.8210736 53.3386796,22.7236581 53.143111,22.6779324 C52.6178984,22.5775348 51.9747398,22.5318091 51.0987134,22.499006 C51.9455053,19.2584493 51.0805679,14.7027833 50.4263203,14.112326 C49.7388059,13.4900596 48.9393941,12.9582505 48.0714324,12.5079523 C44.5733754,6.81809145 38.2375574,3.01192843 30.9995029,3 C23.7614484,3.01192843 17.4256304,6.81809145 13.9275734,12.5079523 C13.0596117,12.9582505 12.2601999,13.4900596 11.5726855,14.112326 C10.9184379,14.7027833 10.0535005,19.2584493 10.9002924,22.499006 C10.024266,22.5318091 9.38110742,22.5775348 8.85589482,22.6779324 C8.66032622,22.7236581 8.35790054,22.8210736 8.15426725,23.0099404 C7.43348605,23.6799205 6.37600427,27.5755467 6.1219667,32.7534791 C6.03023091,34.6013917 6.031239,36.3260437 6.10281308,37.8151093 C5.91833341,37.5775348 5.72478098,37.3727634 5.5271962,37.1928429 C5.28424758,36.972167 5.0100483,36.8389662 4.84472226,36.4880716 C4.78121287,36.3528827 4.74895413,36.0904573 4.73282476,35.8200795 C4.72778433,34.8190855 4.7509703,33.7673956 4.80339075,32.6908549 C4.92637719,30.1789264 5.19351987,27.805169 5.56046303,25.9363817 C5.53929323,25.9691849 5.51913152,26 5.49796172,26.0258449 C5.14513176,26.4701789 4.23684665,27.0089463 3.85579029,27.4652087 C3.47473394,27.9224652 3.39408709,28.6918489 3.39408709,28.6918489 C3.39408709,28.6918489 3.19448615,30.5 3.08863716,32.5516899 C3.08863716,32.5596421 3.08762908,32.5666004 3.08762908,32.5735586 C3.08762908,32.582505 3.08662099,32.5904573 3.08662099,32.5994036 C2.98480434,34.6510934 3.00093371,36.4701789 3.00093371,36.4701789 C3.00093371,36.4701789 3.00294989,37.2435388 3.33561813,37.7355865 C3.66828638,38.2266402 4.51810253,38.8518887 4.82355246,39.3290258 C5.13001048,39.805169 5.25299692,41.1819085 6.26511486,42.1143141 C7.14517358,42.9234592 7.92341565,43.1809145 10.1291069,43.2345924 L10.1280988,43.9960239 C10.141204,44.971173 10.1825355,47.333002 11.7339792,48.6799205 C12.0948738,48.9940358 21.6555576,56.8240557 24.5830381,59.2186879 C24.8804234,59.4671968 25.7423365,60.1202783 26.8673601,60.5497018 C27.7514511,60.887674 29.4450349,60.9850895 30.9995029,61 C32.5539709,60.9850895 34.2465466,60.887674 35.1316457,60.5497018 C36.2566693,60.1202783 37.1185824,59.4671968 37.4159677,59.2186879 C40.3434482,56.8240557 49.904132,48.9940358 50.2650266,48.6799205 C51.8164703,47.333002 51.8578018,44.971173 51.8698989,43.9960239 L51.8698989,43.2345924 C54.0745821,43.1809145 54.8538322,42.9234592 55.7328829,42.1143141 C56.7460089,41.1819085 56.8689953,39.805169 57.1744453,39.3290258 C57.4809033,38.8518887 58.3307194,38.2266402 58.6633877,37.7355865 C58.997064,37.2435388 58.9990802,36.4701789 58.9990802,36.4701789 C58.9990802,36.4701789 59.0152095,34.6510934 58.9123848,32.5994036 L58.9123848,32.5994036 Z" id="Fill-9" fill="#213441"></path>
            <path d="M36.6576026,48.000059 C36.2719284,47.9927801 35.3906835,48.6613978 34.7126433,48.8891229 C34.3871011,48.9983062 34.0625957,49.0814935 33.7225388,49.0898122 C33.5680618,49.0939716 31.1513774,49.0898122 31.0000106,49.0898122 C30.8486438,49.0898122 28.4319594,49.0939716 28.2774824,49.0898122 C27.9374255,49.0814935 27.6129201,48.9983062 27.2873779,48.8891229 C26.6093377,48.6613978 25.7291296,47.9927801 25.3424186,48.000059 C24.9132005,48.0083777 23.8152731,48.9452744 24.0267719,49.2915414 C24.2558955,49.6638044 24.8997227,49.0471788 25.6575932,49.4339996 C25.9478857,49.5826968 26.8540127,50.2669122 27.0395925,50.4072907 C27.2241356,50.5476692 27.6429861,50.8013904 28.0597631,50.8970557 C28.4837973,50.9948008 30.779181,51 31.0000106,51 C31.2208402,51 33.5162239,50.9948008 33.9412949,50.8970557 C34.3570351,50.8013904 34.7758856,50.5476692 34.9604287,50.4072907 C35.1460085,50.2669122 36.0521355,49.5826968 36.3424279,49.4339996 C37.1002985,49.0471788 37.7441257,49.6638044 37.9732493,49.2915414 C38.1847481,48.9452744 37.0857839,48.0083777 36.6576026,48.000059" id="Fill-10" fill="#213441"></path>
        </g>
    </g>
</svg>